<svg width="22" height="22" viewBox="0 0 22 22" fill="none" xmlns="http://www.w3.org/2000/svg">
<path d="M18.7778 5.00684V19.0068C18.7778 19.5373 18.5437 20.046 18.1269 20.421C17.7102 20.7961 17.1449 21.0068 16.5556 21.0068H5.44444C4.85507 21.0068 4.28984 20.7961 3.8731 20.421C3.45635 20.046 3.22222 19.5373 3.22222 19.0068V5.00684M1 5.00684H21M6.55556 5.00684V3.00684C6.55556 2.4764 6.78968 1.9677 7.20643 1.59262C7.62318 1.21755 8.18841 1.00684 8.77778 1.00684H13.2222C13.8116 1.00684 14.3768 1.21755 14.7936 1.59262C15.2103 1.9677 15.4444 2.4764 15.4444 3.00684V5.00684" stroke="#1B2F33" stroke-width="2" stroke-linecap="round" stroke-linejoin="round"/>
</svg>
