<svg width="22" height="22" viewBox="0 0 22 22" fill="none" xmlns="http://www.w3.org/2000/svg">
<path d="M10.4755 2.0558H3.10567C2.54721 2.0558 2.01163 2.27764 1.61674 2.67253C1.22185 3.06742 1 3.60301 1 4.16147V18.9012C1 19.4596 1.22185 19.9952 1.61674 20.3901C2.01163 20.785 2.54721 21.0068 3.10567 21.0068H17.8454C18.4038 21.0068 18.9394 20.785 19.3343 20.3901C19.7292 19.9952 19.951 19.4596 19.951 18.9012V11.5313M17.1873 1.66098C17.6062 1.24214 18.1743 1.00684 18.7666 1.00684C19.3589 1.00684 19.927 1.24214 20.3459 1.66098C20.7647 2.07983 21 2.6479 21 3.24024C21 3.83257 20.7647 4.40065 20.3459 4.81949L10.8566 14.3097C10.6066 14.5595 10.2978 14.7424 9.95858 14.8414L6.93378 15.7258C6.84319 15.7522 6.74715 15.7538 6.65574 15.7304C6.56432 15.707 6.48088 15.6594 6.41415 15.5927C6.34742 15.526 6.29986 15.4425 6.27644 15.3511C6.25302 15.2597 6.2546 15.1637 6.28102 15.0731L7.1654 12.0483C7.26493 11.7093 7.44813 11.4008 7.69814 11.1512L17.1873 1.66098Z" stroke="#1B2F33" stroke-width="2" stroke-linecap="round" stroke-linejoin="round"/>
</svg>
