<svg width="28" height="22" viewBox="0 0 28 22" fill="none" xmlns="http://www.w3.org/2000/svg">
<path d="M1.08125 11.504C0.972916 11.1833 0.972916 10.8304 1.08125 10.5096C2.13641 7.69777 3.92748 5.29353 6.22739 3.60175C8.52731 1.90997 11.2325 1.00684 14 1.00684C16.7675 1.00684 19.4727 1.90997 21.7726 3.60175C24.0725 5.29353 25.8636 7.69777 26.9187 10.5096C27.0271 10.8304 27.0271 11.1833 26.9187 11.504C25.8636 14.3159 24.0725 16.7201 21.7726 18.4119C19.4727 20.1037 16.7675 21.0068 14 21.0068C11.2325 21.0068 8.52731 20.1037 6.22739 18.4119C3.92748 16.7201 2.13641 14.3159 1.08125 11.504Z" stroke="#1B2F33" stroke-width="2" stroke-linecap="round" stroke-linejoin="round"/>
<path d="M14 15.2929C16.1538 15.2929 17.8998 13.374 17.8998 11.0068C17.8998 8.63969 16.1538 6.72074 14 6.72074C11.8462 6.72074 10.1002 8.63969 10.1002 11.0068C10.1002 13.374 11.8462 15.2929 14 15.2929Z" stroke="#1B2F33" stroke-width="2" stroke-linecap="round" stroke-linejoin="round"/>
</svg>
