<svg width="29" height="29" viewBox="0 0 29 29" fill="none" xmlns="http://www.w3.org/2000/svg">
<path d="M24.706 4.62763C23.407 3.3189 21.8608 2.28151 20.1574 1.57576C18.4539 0.870003 16.627 0.510013 14.7831 0.516693C12.3181 0.519103 9.89687 1.16913 7.76207 2.40166C5.62727 3.6342 3.85379 5.406 2.6192 7.5396C1.3846 9.67321 0.732274 12.0938 0.72749 14.5588C0.722723 17.0239 1.3657 19.4469 2.59201 21.5853L0.607422 28.868L8.04964 26.9189C10.1047 28.0621 12.4138 28.6715 14.7654 28.6908C18.5037 28.691 22.0906 27.2144 24.7454 24.5827C27.4003 21.9512 28.9082 18.3773 28.941 14.6392C28.9286 12.7739 28.548 10.9293 27.8213 9.21135C27.0946 7.49335 26.0359 5.93569 24.706 4.62763ZM14.7831 26.2632C12.6881 26.2647 10.6314 25.7015 8.8293 24.633L8.40403 24.3673L3.99186 25.5367L5.16135 21.2309L4.87784 20.7879C3.37035 18.3545 2.80773 15.4525 3.29658 12.6319C3.78543 9.81142 5.29179 7.26813 7.53028 5.4839C9.7688 3.69964 12.5839 2.79837 15.4424 2.95081C18.3009 3.10324 21.0044 4.29879 23.0404 6.31099C25.266 8.48729 26.54 11.4559 26.5843 14.5683C26.5563 17.6797 25.3005 20.6541 23.0904 22.8444C20.8804 25.0346 17.8946 26.2634 14.7831 26.2632ZM21.1798 17.5098C20.8255 17.3326 19.1067 16.482 18.7877 16.3757C18.4688 16.2694 18.2207 16.1985 17.9903 16.5529C17.6437 17.028 17.2709 17.4834 16.874 17.9173C16.6791 18.1654 16.4664 18.1831 16.112 17.9173C14.0915 17.1189 12.4081 15.6482 11.3455 13.7532C10.9734 13.133 11.6999 13.1685 12.3732 11.8395C12.423 11.7437 12.4489 11.6373 12.4489 11.5294C12.4489 11.4215 12.423 11.3152 12.3732 11.2193C12.3732 11.0421 11.5758 9.3056 11.2923 8.61454C11.0088 7.92347 10.7253 8.02979 10.4949 8.01207H9.80388C9.62482 8.01482 9.44842 8.05577 9.28647 8.13216C9.12451 8.20855 8.98073 8.31864 8.86474 8.45506C8.46715 8.84167 8.15704 9.309 7.9553 9.82556C7.75357 10.3421 7.6649 10.8959 7.69525 11.4497C7.80635 12.7753 8.30557 14.0387 9.13054 15.0822C10.6406 17.3429 12.7101 19.1742 15.1375 20.3981C16.4106 21.1412 17.8902 21.452 19.3547 21.284C19.8424 21.1873 20.3043 20.989 20.7103 20.702C21.1164 20.4151 21.4575 20.0458 21.7114 19.6184C21.9467 19.0967 22.0208 18.5168 21.9241 17.9528C21.7646 17.7756 21.5342 17.687 21.1798 17.5098Z" fill="black" stroke="black" stroke-width="0.00064"/>
</svg>
