<svg width="33" height="44" viewBox="0 0 33 44" fill="none" xmlns="http://www.w3.org/2000/svg">
<path d="M4.70277 0.696289V38.9706H32.3453V11.328V9.20168L23.8399 0.696289H21.7136H4.70277ZM6.82912 2.82264H21.7136V9.20168V11.328H30.2189V36.8442H6.82912V2.82264ZM23.8399 3.57433L29.4673 9.20168H23.8399V3.57433ZM0.450073 4.94899V41.0969V43.2233H2.57642H28.0926V41.0969H2.57642V4.94899H0.450073ZM8.95547 4.94899V13.4544H17.4609V4.94899H8.95547ZM11.0818 7.07533H15.3345V11.328H11.0818V7.07533ZM8.95547 15.5807V17.7071H28.0926V15.5807H8.95547ZM8.95547 19.8334V21.9598H28.0926V19.8334H8.95547ZM8.95547 24.0861V26.2125H28.0926V24.0861H8.95547ZM8.95547 28.3388V30.4652H28.0926V28.3388H8.95547ZM8.95547 32.5915V34.7179H28.0926V32.5915H8.95547Z" fill="black"/>
</svg>
