<svg width="26" height="26" viewBox="0 0 26 26" fill="none" xmlns="http://www.w3.org/2000/svg">
<path d="M12.4311 1.37109C12.4837 1.25967 12.5649 1.16589 12.6657 1.10032C12.7664 1.03475 12.8825 1 13.0011 1C13.1196 1 13.2358 1.03475 13.3365 1.10032C13.4372 1.16589 13.5184 1.25967 13.571 1.37109L16.3428 7.25907C16.5254 7.64661 16.7949 7.9819 17.1283 8.23615C17.4616 8.4904 17.8488 8.65602 18.2566 8.7188L24.4552 9.67014C24.5727 9.68798 24.683 9.73994 24.7738 9.82014C24.8646 9.90033 24.9321 10.0056 24.9688 10.1239C25.0055 10.2423 25.0099 10.3691 24.9815 10.4899C24.9531 10.6107 24.893 10.7208 24.808 10.8077L20.3252 15.3857C20.0296 15.6879 19.8084 16.0608 19.6807 16.4725C19.553 16.8842 19.5226 17.3222 19.5921 17.749L20.6504 24.2171C20.6711 24.3402 20.6584 24.4669 20.6138 24.5829C20.5691 24.6988 20.4943 24.7992 20.3979 24.8727C20.3014 24.9462 20.1872 24.9897 20.0683 24.9984C19.9494 25.0071 19.8305 24.9805 19.7253 24.9218L14.1842 21.8664C13.8191 21.6653 13.4129 21.5603 13.0005 21.5603C12.5881 21.5603 12.1819 21.6653 11.8168 21.8664L6.27688 24.9218C6.17169 24.9802 6.05298 25.0064 5.93426 24.9976C5.81553 24.9887 5.70156 24.9451 5.6053 24.8717C5.50904 24.7983 5.43436 24.698 5.38975 24.5823C5.34514 24.4665 5.3324 24.34 5.35297 24.2171L6.41007 17.7502C6.4799 17.3233 6.44965 16.885 6.32193 16.473C6.1942 16.0611 5.97284 15.6879 5.67694 15.3857L1.19414 10.809C1.10846 10.7222 1.04775 10.6119 1.01891 10.4907C0.990079 10.3695 0.994284 10.2422 1.03105 10.1234C1.06782 10.0046 1.13567 9.89896 1.22687 9.81861C1.31807 9.73825 1.42897 9.68637 1.54691 9.66888L7.74435 8.7188C8.15262 8.65651 8.54035 8.4911 8.87415 8.23682C9.20795 7.98254 9.47784 7.647 9.66058 7.25907L12.4311 1.37109Z" stroke="#FB2343" stroke-width="2" stroke-linecap="round" stroke-linejoin="round"/>
</svg>
