<svg width="84" height="84" viewBox="0 0 84 84" fill="none" xmlns="http://www.w3.org/2000/svg">
<path d="M66.6 74.8C66.6 68.2757 64.0082 62.0186 59.3948 57.4052C54.7814 52.7918 48.5243 50.2 42 50.2M42 50.2C35.4757 50.2 29.2186 52.7918 24.6052 57.4052C19.9918 62.0186 17.4 68.2757 17.4 74.8M42 50.2C51.0575 50.2 58.4 42.8575 58.4 33.8C58.4 24.7425 51.0575 17.4 42 17.4C32.9425 17.4 25.6 24.7425 25.6 33.8C25.6 42.8575 32.9425 50.2 42 50.2ZM83 42C83 64.6437 64.6437 83 42 83C19.3563 83 1 64.6437 1 42C1 19.3563 19.3563 1 42 1C64.6437 1 83 19.3563 83 42Z" stroke="#FB2343" stroke-width="2" stroke-linecap="round" stroke-linejoin="round"/>
</svg>
