<svg width="22" height="17" viewBox="0 0 22 17" fill="none" xmlns="http://www.w3.org/2000/svg">
<path d="M1.06251 8.74228C0.979165 8.51898 0.979165 8.27334 1.06251 8.05003C1.87421 6.09249 3.25202 4.41873 5.02128 3.24097C6.79053 2.06321 8.87155 1.43447 11.0005 1.43447C13.1295 1.43447 15.2105 2.06321 16.9797 3.24097C18.749 4.41873 20.1268 6.09249 20.9385 8.05003C21.0218 8.27334 21.0218 8.51898 20.9385 8.74228C20.1268 10.6998 18.749 12.3736 16.9797 13.5513C15.2105 14.7291 13.1295 15.3578 11.0005 15.3578C8.87155 15.3578 6.79053 14.7291 5.02128 13.5513C3.25202 12.3736 1.87421 10.6998 1.06251 8.74228Z" stroke="#1B2F33" stroke-width="2" stroke-linecap="round" stroke-linejoin="round"/>
<path d="M11.0005 11.38C12.6574 11.38 14.0005 10.0441 14.0005 8.39616C14.0005 6.74823 12.6574 5.41231 11.0005 5.41231C9.34365 5.41231 8.00051 6.74823 8.00051 8.39616C8.00051 10.0441 9.34365 11.38 11.0005 11.38Z" stroke="#1B2F33" stroke-width="2" stroke-linecap="round" stroke-linejoin="round"/>
</svg>
