<svg width="15" height="15" viewBox="0 0 15 15" fill="none" xmlns="http://www.w3.org/2000/svg">
<path d="M5.33333 1H1.72222C1.32335 1 1 1.32335 1 1.72222V6.77778C1 7.17665 1.32335 7.5 1.72222 7.5H5.33333C5.73221 7.5 6.05556 7.17665 6.05556 6.77778V1.72222C6.05556 1.32335 5.73221 1 5.33333 1Z" stroke="white" stroke-width="2" stroke-linecap="round" stroke-linejoin="round"/>
<path d="M13.2778 1H9.66667C9.26779 1 8.94444 1.32335 8.94444 1.72222V3.88889C8.94444 4.28776 9.26779 4.61111 9.66667 4.61111H13.2778C13.6766 4.61111 14 4.28776 14 3.88889V1.72222C14 1.32335 13.6766 1 13.2778 1Z" stroke="white" stroke-width="2" stroke-linecap="round" stroke-linejoin="round"/>
<path d="M13.2778 7.5H9.66667C9.26779 7.5 8.94444 7.82335 8.94444 8.22222V13.2778C8.94444 13.6767 9.26779 14 9.66667 14H13.2778C13.6766 14 14 13.6767 14 13.2778V8.22222C14 7.82335 13.6766 7.5 13.2778 7.5Z" stroke="white" stroke-width="2" stroke-linecap="round" stroke-linejoin="round"/>
<path d="M5.33333 10.3889H1.72222C1.32335 10.3889 1 10.7122 1 11.1111V13.2778C1 13.6766 1.32335 14 1.72222 14H5.33333C5.73221 14 6.05556 13.6766 6.05556 13.2778V11.1111C6.05556 10.7122 5.73221 10.3889 5.33333 10.3889Z" stroke="white" stroke-width="2" stroke-linecap="round" stroke-linejoin="round"/>
</svg>
