<svg width="13" height="16" viewBox="0 0 13 16" fill="none" xmlns="http://www.w3.org/2000/svg">
<path fill-rule="evenodd" clip-rule="evenodd" d="M9.80008 4.28559C9.80008 5.82402 8.32262 7.07117 6.50021 7.07117C4.6777 7.07117 3.20032 5.82402 3.20032 4.28559C3.20032 2.74715 4.6777 1.5 6.50021 1.5C7.37534 1.5 8.21471 1.79348 8.83355 2.31588C9.45238 2.83828 9.80008 3.5468 9.80008 4.28559Z" stroke="white" stroke-width="2" stroke-linecap="round" stroke-linejoin="round"/>
<path fill-rule="evenodd" clip-rule="evenodd" d="M9.3238 8.92871H3.67659C3.32155 8.92908 2.9691 8.97959 2.63383 9.0782C-1.22702 10.2027 2.44573 14.4999 6.50021 14.4999C10.5546 14.4999 14.2274 10.2027 10.3655 9.0782C10.0305 8.97969 9.67842 8.92918 9.3238 8.92871Z" stroke="white" stroke-width="2" stroke-linecap="round" stroke-linejoin="round"/>
</svg>
