<svg width="15" height="15" viewBox="0 0 15 15" fill="none" xmlns="http://www.w3.org/2000/svg">
<path d="M6.77778 8.22222V11.1111M9.66667 2.44444V5.33333M1 1V12.5556C1 12.9386 1.15218 13.306 1.42307 13.5769C1.69395 13.8478 2.06135 14 2.44444 14H14M4.61111 8.22222H9.66667C10.0655 8.22222 10.3889 8.54557 10.3889 8.94444V10.3889C10.3889 10.7878 10.0655 11.1111 9.66667 11.1111H4.61111C4.21224 11.1111 3.88889 10.7878 3.88889 10.3889V8.94444C3.88889 8.54557 4.21224 8.22222 4.61111 8.22222ZM4.61111 2.44444H11.8333C12.2322 2.44444 12.5556 2.76779 12.5556 3.16667V4.61111C12.5556 5.00998 12.2322 5.33333 11.8333 5.33333H4.61111C4.21224 5.33333 3.88889 5.00998 3.88889 4.61111V3.16667C3.88889 2.76779 4.21224 2.44444 4.61111 2.44444Z" stroke="white" stroke-width="2" stroke-linecap="round" stroke-linejoin="round"/>
</svg>
