<svg width="15" height="13" viewBox="0 0 15 13" fill="none" xmlns="http://www.w3.org/2000/svg">
<path d="M11.4 12C11.4 10.7034 10.8521 9.45988 9.87696 8.54303C8.90177 7.62619 7.57913 7.11111 6.2 7.11111M6.2 7.11111C4.82087 7.11111 3.49823 7.62619 2.52304 8.54303C1.54786 9.45988 1 10.7034 1 12M6.2 7.11111C7.99493 7.11111 9.45 5.74309 9.45 4.05556C9.45 2.36802 7.99493 1 6.2 1C4.40507 1 2.95 2.36802 2.95 4.05556C2.95 5.74309 4.40507 7.11111 6.2 7.11111ZM14 11.3889C14 9.32944 12.7 7.41667 11.4 6.5C11.8273 6.19858 12.169 5.80277 12.3949 5.34761C12.6207 4.89244 12.7237 4.39195 12.6948 3.89043C12.6659 3.38891 12.5059 2.90183 12.2291 2.47229C11.9522 2.04275 11.567 1.68399 11.1075 1.42778" stroke="white" stroke-width="2" stroke-linecap="round" stroke-linejoin="round"/>
</svg>
