<svg width="15" height="15" viewBox="0 0 15 15" fill="none" xmlns="http://www.w3.org/2000/svg">
<path d="M1 3.88889V2.44444C1 2.06135 1.15218 1.69395 1.42307 1.42307C1.69395 1.15218 2.06135 1 2.44444 1H3.88889M11.1111 1H12.5556C12.9386 1 13.306 1.15218 13.5769 1.42307C13.8478 1.69395 14 2.06135 14 2.44444V3.88889M14 11.1111V12.5556C14 12.9386 13.8478 13.306 13.5769 13.5769C13.306 13.8478 12.9386 14 12.5556 14H11.1111M3.88889 14H2.44444C2.06135 14 1.69395 13.8478 1.42307 13.5769C1.15218 13.306 1 12.9386 1 12.5556V11.1111M4.61111 3.88889V11.1111M7.5 3.88889V11.1111M11.1111 3.88889V11.1111" stroke="white" stroke-width="2" stroke-linecap="round" stroke-linejoin="round"/>
</svg>
